<svg id="Layer_1" data-name="Layer 1" xmlns="http://www.w3.org/2000/svg" viewBox="0 0 926.01 969.45"><defs><style>.cls-1{fill:none;stroke:#f7941d;stroke-miterlimit:10;}.cls-2{fill:#fff;}.cls-3{fill:#00a8cc;}</style></defs><polygon class="cls-1" points="89.56 924.58 89.56 924.69 89.47 924.64 89.56 924.58"/><polygon class="cls-1" points="89.47 924.64 89.39 924.69 89.39 924.58 89.47 924.64"/><path class="cls-2" d="M1047.12,496.48a63.63,63.63,0,0,0-6-44.38V390.88L1111,361.11,645.35,163.28,185,360.62l222.55,98.46v68.71c-55.06,14.57-96.23,64.43-97,123.53-.43,34.5,12.88,67.22,37.49,92.15a129.72,129.72,0,0,0,72.15,37.32A269.92,269.92,0,0,0,475,874.6V978.66c0,35.85,30.3,58.87,36.38,63.12l.34.24,113,75.31,20.85,15.39,20.75-15.42L779.24,1042l.32-.24c6.08-4.25,36.38-27.27,36.38-63.12V872.4a273.74,273.74,0,0,0,52.73-91,129.7,129.7,0,0,0,76.27-37.91c24.61-24.93,37.92-57.65,37.49-92.15-.06-3.4-.23-6.74-.53-10.06H1055V518.9l-.7-3.51A62.09,62.09,0,0,0,1047.12,496.48Zm-147,202.73a66.93,66.93,0,0,1-47.88,20.2l-2,0-.39,0H820.13l-5,20.73c-10.24,42.75-33,81.2-64.2,108.27s-67.9,41.28-106.42,41.29h-1.33c-78.78-.68-148.38-62.18-169.29-149.55L469,719.36H443.15l-.4,0q-1,0-2,0a66.93,66.93,0,0,1-47.88-20.2,65.1,65.1,0,0,1,.73-93.29,67,67,0,0,1,47.13-19.44c.67,0,1.32,0,2,0l27.8.82V491l175.83,68.25,172.2-69.51v96.77h31.68c.67,0,1.34,0,2,0a67,67,0,0,1,47.14,19.44,65.11,65.11,0,0,1,.72,93.29ZM470.55,458.85V395L647,343l171.59,51.87V459L646.38,526.4Zm459.64-7.74a58.82,58.82,0,0,0-7,48.32,53.42,53.42,0,0,0-4.79,25.05c.16,2.94.24,9.23.27,17.31a130.31,130.31,0,0,0-37.13-15V458.74l48.61-20.69Zm-84.61-47.27v-29l-198.5-60-203.53,60v24.7L342.77,361.54,645.45,231.78,950,361.17ZM992,578.26H981.62c.12-17.14.19-38-.06-50.19l5.11-1.67,5.34,2Z" transform="translate(-185 -163.28)"/><path class="cls-3" d="M563.89,589.74a50.19,50.19,0,1,0,50.19,50.19A50.2,50.2,0,0,0,563.89,589.74Zm0,67.77a17.57,17.57,0,1,1,17.56-17.58A17.58,17.58,0,0,1,563.89,657.51Z" transform="translate(-185 -163.28)"/><path class="cls-3" d="M729.44,589.74a50.19,50.19,0,1,0,50.18,50.19A50.19,50.19,0,0,0,729.44,589.74Zm0,67.77A17.57,17.57,0,1,1,747,639.93,17.58,17.58,0,0,1,729.44,657.51Z" transform="translate(-185 -163.28)"/><path class="cls-3" d="M609.7,755.3c2.47,2.79,15.11,16.54,36.09,17.86,24.91,1.58,40.8-15.68,42.74-17.86a13.56,13.56,0,0,1,18.22,0c.49.37,6,4.69,5.61,11.91a14.56,14.56,0,0,1-5.61,10.51c-3.39,3.58-26.73,27.37-63.06,25.58-31.48-1.56-50.92-21.25-55-25.58a21.51,21.51,0,0,1-3.15-13.32,20.9,20.9,0,0,1,3.15-9.1c.28-.47,3.54-5.61,9.81-6A12.38,12.38,0,0,1,609.7,755.3Z" transform="translate(-185 -163.28)"/><path class="cls-3" d="M1002.79,503.58a27.87,27.87,0,0,0,2.29-40.48v-96l13.93-5.93L645.4,202.42,275.15,361.15l168.4,74.49V559.53c-52.47-1.55-96.32,40.74-97,92.24-.65,52.37,43.62,96.15,97,94.59h4.14C471.29,845,551.21,915.85,643,916.64c92.91.81,174.55-70.38,198.45-170.28h8c53.35,1.56,97.62-42.22,97-94.59-.66-51.5-44.51-93.79-97-92.24h-3.88V434.93l120.61-51.32v80.54c-1.49,1.18-8.19,6.8-9.19,16.28-1,9.05,3.65,18.11,11.82,23.4-3.61,1.18-8.63,3.52-11.69,8.4a18.22,18.22,0,0,0-2.76,10.25c.8,14.19,0,82.78,0,82.78H1019V522.48a25.15,25.15,0,0,0-4.57-10.25A25.82,25.82,0,0,0,1002.79,503.58ZM849.87,586.53h.39c.67,0,1.34,0,2,0a67,67,0,0,1,47.14,19.44,65.11,65.11,0,0,1,.72,93.29,66.93,66.93,0,0,1-47.88,20.2l-2,0-.39,0H820.13l-5,20.73c-10.24,42.75-33,81.2-64.2,108.27s-67.9,41.28-106.42,41.29h-1.33c-78.78-.68-148.38-62.18-169.29-149.55L469,719.36H443.15l-.4,0q-1,0-2,0a66.93,66.93,0,0,1-47.88-20.2,65.1,65.1,0,0,1,.73-93.29,67,67,0,0,1,47.13-19.44c.67,0,1.32,0,2,0l27.8.82V491l175.83,68.25,172.2-69.51v96.77ZM470.55,458.85V395L647,343l171.59,51.87V459L646.38,526.4Zm375-55v-29l-198.5-60-203.53,60v24.7L342.77,361.54,645.45,231.78,950,361.17ZM992,578.26H981.62c.12-17.14.19-38-.06-50.19l5.11-1.67,5.34,2Z" transform="translate(-185 -163.28)"/><circle class="cls-3" cx="116.91" cy="649.87" r="20.5"/><circle class="cls-3" cx="203.7" cy="655.24" r="15.13"/><circle class="cls-3" cx="203.7" cy="753.37" r="39.94"/><circle class="cls-3" cx="808.61" cy="649.87" r="20.5"/><circle class="cls-3" cx="721.82" cy="655.24" r="15.13"/><circle class="cls-3" cx="721.82" cy="753.37" r="39.94"/><path class="cls-3" d="M779.94,889.84v88.82c0,18.92-21,33.63-21,33.63l-113.37,75.56-.07.07-.09-.07-113.35-75.56s-21-14.71-21-33.63V889.84l134.47,78.77Z" transform="translate(-185 -163.28)"/></svg>